<svg width="158" height="56" viewBox="0 0 158 56" fill="none" xmlns="http://www.w3.org/2000/svg">
<path d="M70.0257 14.2976H62.5395V17.8304H68.4485V20.1646H62.5395V25.8423H59.6376V11.9634H70.0257V14.2976ZM73.67 13.8139C73.0672 13.8139 72.6186 13.6878 72.3242 13.4354C72.0298 13.1691 71.8826 12.7835 71.8826 12.2789C71.8826 11.7602 72.0298 11.3746 72.3242 11.1223C72.6186 10.8559 73.0672 10.7227 73.67 10.7227C74.2728 10.7227 74.7215 10.8559 75.0159 11.1223C75.3103 11.3746 75.4575 11.7602 75.4575 12.2789C75.4575 12.7835 75.3103 13.1691 75.0159 13.4354C74.7215 13.6878 74.2728 13.8139 73.67 13.8139ZM75.1 15.328V25.8423H72.2191V15.328H75.1ZM87.848 12.8256L88.1845 14.8864C88.1284 14.8864 88.0653 14.8864 87.9952 14.8864C87.9392 14.8724 87.8761 14.8654 87.806 14.8654C87.1611 14.8654 86.6775 15.0126 86.355 15.307C86.0326 15.5874 85.8714 15.9799 85.8714 16.4846L84.6938 16.0009C84.6938 15.4402 84.8059 14.9214 85.0302 14.4448C85.2545 13.9541 85.584 13.5616 86.0186 13.2672C86.4672 12.9728 86.9999 12.8256 87.6167 12.8256C87.6448 12.8256 87.6798 12.8256 87.7219 12.8256C87.7639 12.8256 87.806 12.8256 87.848 12.8256ZM84.3994 23.8656C85.5349 23.8656 86.4111 24.1109 87.0279 24.6016C87.6448 25.0923 87.9532 25.7792 87.9532 26.6624C87.9532 27.4615 87.7219 28.1344 87.2592 28.6811C86.7966 29.2419 86.1447 29.6625 85.3036 29.9429C84.4765 30.2232 83.5162 30.3634 82.4227 30.3634C80.6142 30.3634 79.2894 30.1111 78.4483 29.6064C77.6211 29.1017 77.2076 28.4428 77.2076 27.6297C77.2076 27.0549 77.4249 26.5713 77.8595 26.1787C78.3081 25.7862 79.0441 25.5689 80.0675 25.5269L79.9623 25.8633C79.2333 25.7371 78.6726 25.4988 78.28 25.1483C77.9015 24.7838 77.7123 24.2862 77.7123 23.6553C77.7123 23.0104 77.9576 22.4847 78.4483 22.0782C78.953 21.6576 79.6329 21.4123 80.488 21.3422L81.7498 21.931H81.4554C80.8525 21.973 80.425 22.0992 80.1726 22.3095C79.9343 22.5058 79.8151 22.7301 79.8151 22.9824C79.8151 23.2768 79.9273 23.5011 80.1516 23.6553C80.3899 23.7955 80.7264 23.8656 81.161 23.8656H84.3994ZM82.4437 28.3867C83.1727 28.3867 83.7685 28.3237 84.2311 28.1975C84.7078 28.0713 85.0583 27.9101 85.2826 27.7138C85.5209 27.5176 85.64 27.3003 85.64 27.0619C85.64 26.7956 85.5349 26.5783 85.3246 26.4101C85.1143 26.2558 84.7358 26.1787 84.1891 26.1787H80.6352C80.2988 26.1787 80.0184 26.2629 79.7941 26.4311C79.5838 26.5993 79.4787 26.8306 79.4787 27.125C79.4787 27.5176 79.738 27.826 80.2567 28.0503C80.7895 28.2746 81.5184 28.3867 82.4437 28.3867ZM82.4647 15.1177C83.4461 15.1177 84.2942 15.2649 85.0092 15.5593C85.7382 15.8397 86.2919 16.2462 86.6704 16.779C87.063 17.3117 87.2592 17.9496 87.2592 18.6926C87.2592 19.4216 87.063 20.0524 86.6704 20.5851C86.2919 21.1179 85.7382 21.5314 85.0092 21.8258C84.2942 22.1062 83.4461 22.2464 82.4647 22.2464C80.9086 22.2464 79.717 21.931 78.8899 21.3001C78.0768 20.6552 77.6702 19.7861 77.6702 18.6926C77.6702 17.9496 77.8595 17.3117 78.238 16.779C78.6305 16.2462 79.1843 15.8397 79.8992 15.5593C80.6142 15.2649 81.4694 15.1177 82.4647 15.1177ZM82.4647 16.9262C81.904 16.9262 81.4413 17.0804 81.0768 17.3888C80.7123 17.6972 80.5301 18.1248 80.5301 18.6715C80.5301 19.2183 80.7123 19.6529 81.0768 19.9753C81.4413 20.2837 81.904 20.4379 82.4647 20.4379C83.0255 20.4379 83.4811 20.2837 83.8316 19.9753C84.1961 19.6529 84.3783 19.2183 84.3783 18.6715C84.3783 18.1248 84.1961 17.6972 83.8316 17.3888C83.4811 17.0804 83.0255 16.9262 82.4647 16.9262ZM89.6949 25.8423V10.7227H92.5759V17.1154C92.9123 16.4425 93.3749 15.9448 93.9637 15.6224C94.5525 15.2859 95.2185 15.1177 95.9615 15.1177C96.6905 15.1177 97.3353 15.2579 97.8961 15.5383C98.4709 15.8187 98.9195 16.2462 99.2419 16.821C99.5784 17.3818 99.7466 18.0898 99.7466 18.9449V25.8423H96.8657V19.7861C96.8657 18.8748 96.6905 18.251 96.34 17.9145C95.9895 17.564 95.5409 17.3888 94.9941 17.3888C94.5876 17.3888 94.1951 17.4869 93.8165 17.6832C93.4521 17.8654 93.1506 18.1739 92.9123 18.6085C92.688 19.029 92.5759 19.5898 92.5759 20.2907V25.8423H89.6949ZM106.355 12.1106V22.4146C106.355 22.9193 106.481 23.2908 106.733 23.5291C106.999 23.7534 107.357 23.8656 107.805 23.8656C108.156 23.8656 108.464 23.8165 108.731 23.7184C108.997 23.6062 109.235 23.459 109.446 23.2768L109.908 25.1904C109.572 25.4568 109.151 25.667 108.647 25.8213C108.142 25.9755 107.609 26.0526 107.048 26.0526C106.347 26.0526 105.724 25.9474 105.177 25.7371C104.644 25.5269 104.224 25.1904 103.915 24.7278C103.621 24.2651 103.474 23.6483 103.474 22.8773V12.9097L106.355 12.1106ZM109.719 15.328V17.4729H101.539V15.328H109.719Z" fill="#DE4B47"/>
<path d="M64.7054 33.7531C65.9672 33.7531 67.0747 33.9704 68.028 34.405C68.9813 34.8396 69.7944 35.4845 70.4673 36.3397L68.8481 38.2112C68.2733 37.4822 67.6424 36.9495 66.9555 36.613C66.2826 36.2626 65.4975 36.0873 64.6003 36.0873C64.0115 36.0873 63.5208 36.1644 63.1283 36.3186C62.7498 36.4728 62.4694 36.6761 62.2872 36.9285C62.1189 37.1808 62.0348 37.4612 62.0348 37.7696C62.0348 38.1481 62.182 38.4706 62.4764 38.7369C62.7708 38.9893 63.2755 39.1995 63.9905 39.3678L66.577 39.9566C67.9509 40.265 68.9322 40.7276 69.521 41.3445C70.1238 41.9473 70.4252 42.7323 70.4252 43.6997C70.4252 44.6109 70.1869 45.396 69.7102 46.0549C69.2336 46.6997 68.5677 47.1974 67.7125 47.5479C66.8574 47.8843 65.876 48.0526 64.7685 48.0526C63.8012 48.0526 62.911 47.9404 62.0979 47.7161C61.2988 47.4778 60.5838 47.1554 59.953 46.7488C59.3221 46.3422 58.7964 45.8726 58.3758 45.3399L60.0161 43.3842C60.3385 43.8328 60.7381 44.2324 61.2147 44.5829C61.6913 44.9333 62.2311 45.2137 62.8339 45.424C63.4507 45.6203 64.0956 45.7184 64.7685 45.7184C65.3433 45.7184 65.827 45.6553 66.2195 45.5291C66.6261 45.389 66.9275 45.1997 67.1237 44.9614C67.334 44.709 67.4392 44.4076 67.4392 44.0571C67.4392 43.6926 67.313 43.3842 67.0606 43.1319C66.8223 42.8655 66.3737 42.6622 65.7148 42.5221L62.897 41.8912C62.0839 41.6949 61.3829 41.4426 60.7941 41.1342C60.2193 40.8117 59.7777 40.4052 59.4693 39.9145C59.1749 39.4098 59.0277 38.814 59.0277 38.1271C59.0277 37.3 59.252 36.557 59.7006 35.8981C60.1493 35.2392 60.7941 34.7205 61.6353 34.3419C62.4904 33.9494 63.5138 33.7531 64.7054 33.7531ZM77.6497 37.1177C78.589 37.1177 79.381 37.2579 80.0259 37.5383C80.6848 37.8046 81.2105 38.1762 81.6031 38.6528C82.0096 39.1154 82.297 39.6341 82.4652 40.2089L79.7736 41.1762C79.6334 40.5454 79.3951 40.0687 79.0586 39.7463C78.7221 39.4238 78.2665 39.2626 77.6917 39.2626C77.159 39.2626 76.7034 39.3888 76.3249 39.6411C75.9464 39.8795 75.659 40.251 75.4627 40.7557C75.2664 41.2463 75.1683 41.8632 75.1683 42.6062C75.1683 43.3492 75.2664 43.966 75.4627 44.4567C75.673 44.9474 75.9674 45.3118 76.3459 45.5502C76.7384 45.7885 77.1941 45.9077 77.7128 45.9077C78.1333 45.9077 78.4908 45.8376 78.7852 45.6974C79.0796 45.5432 79.3179 45.3259 79.5002 45.0455C79.6965 44.7651 79.8296 44.4286 79.8997 44.0361L82.5073 44.8773C82.3531 45.5081 82.0657 46.0619 81.6451 46.5385C81.2245 47.0152 80.6848 47.3867 80.0259 47.653C79.367 47.9194 78.603 48.0526 77.7338 48.0526C76.6543 48.0526 75.701 47.8353 74.8739 47.4007C74.0468 46.9661 73.4089 46.3422 72.9603 45.5291C72.5117 44.716 72.2874 43.7347 72.2874 42.5851C72.2874 41.4356 72.5117 40.4542 72.9603 39.6411C73.4089 38.828 74.0398 38.2042 74.8529 37.7696C75.666 37.335 76.5983 37.1177 77.6497 37.1177ZM84.7458 47.8423V32.7227H87.6268V39.1154C87.9632 38.4425 88.4258 37.9448 89.0146 37.6224C89.6034 37.2859 90.2693 37.1177 91.0124 37.1177C91.7413 37.1177 92.3862 37.2579 92.947 37.5383C93.5218 37.8187 93.9704 38.2462 94.2928 38.821C94.6293 39.3818 94.7975 40.0898 94.7975 40.9449V47.8423H91.9166V41.7861C91.9166 40.8748 91.7413 40.251 91.3909 39.9145C91.0404 39.564 90.5918 39.3888 90.045 39.3888C89.6385 39.3888 89.246 39.4869 88.8674 39.6832C88.5029 39.8654 88.2015 40.1739 87.9632 40.6085C87.7389 41.029 87.6268 41.5898 87.6268 42.2907V47.8423H84.7458ZM102.644 48.0526C101.537 48.0526 100.569 47.8353 99.7422 47.4007C98.9291 46.9661 98.2982 46.3422 97.8496 45.5291C97.401 44.716 97.1767 43.7347 97.1767 42.5851C97.1767 41.4356 97.401 40.4542 97.8496 39.6411C98.2982 38.828 98.9221 38.2042 99.7211 37.7696C100.534 37.335 101.459 37.1177 102.497 37.1177C103.562 37.1177 104.467 37.335 105.21 37.7696C105.953 38.1902 106.52 38.772 106.913 39.515C107.305 40.244 107.502 41.0781 107.502 42.0174C107.502 42.2978 107.495 42.5641 107.481 42.8165C107.467 43.0688 107.446 43.2931 107.418 43.4894H99.0272V41.4917H106.156L104.768 41.9963C104.768 41.1131 104.565 40.4332 104.158 39.9566C103.766 39.4799 103.205 39.2416 102.476 39.2416C101.943 39.2416 101.481 39.3678 101.088 39.6201C100.709 39.8725 100.422 40.251 100.226 40.7557C100.03 41.2463 99.9314 41.8702 99.9314 42.6272C99.9314 43.3702 100.037 43.987 100.247 44.4777C100.471 44.9544 100.78 45.3118 101.172 45.5502C101.579 45.7885 102.062 45.9077 102.623 45.9077C103.24 45.9077 103.738 45.7885 104.116 45.5502C104.495 45.3118 104.789 44.9824 104.999 44.5618L107.291 45.445C107.067 45.9918 106.724 46.4614 106.261 46.8539C105.812 47.2465 105.273 47.5479 104.642 47.7582C104.025 47.9544 103.359 48.0526 102.644 48.0526ZM113.918 48.0526C113.048 48.0526 112.27 47.8353 111.583 47.4007C110.91 46.9661 110.378 46.3422 109.985 45.5291C109.607 44.716 109.417 43.7417 109.417 42.6062C109.417 41.4426 109.621 40.4542 110.027 39.6411C110.434 38.814 110.981 38.1902 111.668 37.7696C112.368 37.335 113.154 37.1177 114.023 37.1177C114.948 37.1177 115.712 37.3841 116.315 37.9168C116.918 38.4495 117.31 39.1365 117.492 39.9776L117.219 40.3141V32.7227H120.1V47.8423H117.513L117.324 44.6459L117.682 44.8142C117.584 45.4731 117.359 46.0478 117.009 46.5385C116.658 47.0152 116.217 47.3867 115.684 47.653C115.151 47.9194 114.562 48.0526 113.918 48.0526ZM114.759 45.8446C115.263 45.8446 115.698 45.7184 116.062 45.4661C116.427 45.1997 116.707 44.8142 116.904 44.3095C117.114 43.8048 117.219 43.202 117.219 42.501C117.219 41.8281 117.121 41.2603 116.925 40.7977C116.728 40.3211 116.448 39.9566 116.084 39.7042C115.719 39.4519 115.291 39.3257 114.801 39.3257C114.016 39.3257 113.399 39.6061 112.95 40.1669C112.516 40.7136 112.298 41.5197 112.298 42.5851C112.298 43.6506 112.516 44.4637 112.95 45.0245C113.385 45.5712 113.988 45.8446 114.759 45.8446ZM126.786 48.0526C126.085 48.0526 125.454 47.9264 124.893 47.6741C124.333 47.4217 123.884 47.0222 123.548 46.4754C123.225 45.9147 123.064 45.1927 123.064 44.3095V37.328H125.945V43.6155C125.945 44.4286 126.113 44.9964 126.45 45.3189C126.786 45.6273 127.27 45.7815 127.901 45.7815C128.195 45.7815 128.482 45.7324 128.763 45.6343C129.043 45.5221 129.288 45.3539 129.499 45.1296C129.723 44.9053 129.898 44.6179 130.024 44.2674C130.151 43.9029 130.214 43.4754 130.214 42.9847V37.328H133.095V47.8423H130.529L130.424 46.0128C130.074 46.7138 129.59 47.2325 128.973 47.5689C128.37 47.8914 127.641 48.0526 126.786 48.0526ZM138.965 32.7227V44.6039C138.965 45.0946 139.049 45.438 139.217 45.6343C139.386 45.8306 139.666 45.9287 140.059 45.9287C140.297 45.9287 140.493 45.9147 140.647 45.8866C140.802 45.8446 140.998 45.7885 141.236 45.7184L140.984 47.611C140.745 47.7512 140.444 47.8563 140.08 47.9264C139.729 48.0105 139.379 48.0526 139.028 48.0526C138.005 48.0526 137.255 47.8072 136.778 47.3166C136.315 46.8119 136.084 46.0128 136.084 44.9193V32.7227H138.965ZM147.72 48.0526C146.612 48.0526 145.645 47.8353 144.818 47.4007C144.005 46.9661 143.374 46.3422 142.925 45.5291C142.477 44.716 142.253 43.7347 142.253 42.5851C142.253 41.4356 142.477 40.4542 142.925 39.6411C143.374 38.828 143.998 38.2042 144.797 37.7696C145.61 37.335 146.535 37.1177 147.573 37.1177C148.638 37.1177 149.542 37.335 150.285 37.7696C151.028 38.1902 151.596 38.772 151.989 39.515C152.381 40.244 152.578 41.0781 152.578 42.0174C152.578 42.2978 152.571 42.5641 152.557 42.8165C152.543 43.0688 152.522 43.2931 152.493 43.4894H144.103V41.4917H151.232L149.844 41.9963C149.844 41.1131 149.641 40.4332 149.234 39.9566C148.842 39.4799 148.281 39.2416 147.552 39.2416C147.019 39.2416 146.556 39.3678 146.164 39.6201C145.785 39.8725 145.498 40.251 145.302 40.7557C145.105 41.2463 145.007 41.8702 145.007 42.6272C145.007 43.3702 145.112 43.987 145.323 44.4777C145.547 44.9544 145.855 45.3118 146.248 45.5502C146.655 45.7885 147.138 45.9077 147.699 45.9077C148.316 45.9077 148.813 45.7885 149.192 45.5502C149.571 45.3118 149.865 44.9824 150.075 44.5618L152.367 45.445C152.143 45.9918 151.8 46.4614 151.337 46.8539C150.888 47.2465 150.349 47.5479 149.718 47.7582C149.101 47.9544 148.435 48.0526 147.72 48.0526Z" fill="white"/>
<path d="M25.0236 9.93173C26.0947 8.07303 28.4699 7.43349 30.3294 8.50334C32.189 9.57338 32.8284 11.9482 31.7574 13.8072L27.0106 22.0463C25.9395 23.9053 23.5634 24.5445 21.7038 23.4745C20.9455 23.0381 20.3905 22.385 20.0713 21.6382C21.7935 21.6577 24.6732 19.9677 24.9499 18.4841C25.7952 16.4358 24.1777 14.5871 22.6257 14.0919L25.0236 9.93173Z" fill="#DE4B47"/>
<rect width="7.1357" height="16.0106" rx="3.56785" transform="matrix(0.827906 0.560897 -0.561417 0.827512 34.7803 12.6572)" fill="#DE4B47"/>
<rect width="6.29581" height="13.0849" rx="3.1479" transform="matrix(0.827906 0.560897 -0.561417 0.827512 40.667 19.6582)" fill="#DE4B47"/>
<path d="M18.1183 5.0851C19.1408 3.40066 21.3358 2.86332 23.0208 3.88492V3.88492C24.7059 4.90651 25.243 7.10018 24.2205 8.78462L21.6976 12.9406C21.5 13.2661 21.0757 13.37 20.75 13.1725L15.8272 10.188C15.5015 9.99059 15.3977 9.5666 15.5954 9.24104L18.1183 5.0851Z" fill="#DE4B47"/>
<path d="M11.2138 40.5781C11.2978 42.1399 9.81208 47.0195 9.75087 47.3478C9.68966 47.6761 9.88676 47.6953 9.88676 47.6953C9.88676 47.6953 10.8456 49.3627 11.7612 50.146C12.2133 50.5328 13.0147 51.0119 13.0147 51.0119L30.4713 51.5783C30.5978 51.7385 31.0109 51.3568 31.0459 51.0119C31.0809 50.667 31.2444 49.2139 31.3955 48.8223C31.3955 48.8223 35.4203 44.2141 38.4047 39.9976C39.3564 38.653 39.501 37.6728 40.1737 36.1693C40.8537 34.6497 42.0099 32.295 42.0099 32.295C42.0099 32.295 43.966 28.0916 44.4759 25.1998C44.9858 22.308 43.8472 23.3841 43.9111 23.5132C43.9749 23.6422 42.2112 27.4422 42.2112 27.4422C42.2112 27.4422 42.0543 28.965 41.7708 30.1713C41.5221 31.2292 41.1571 31.6241 40.3742 32.4712L40.3381 32.5103C39.6933 33.2082 39.2101 33.5298 38.6044 33.7389C37.9988 33.9481 36.4543 34.0466 35.2429 33.3755C34.0315 32.7045 33.1703 31.3394 32.8911 30.7407L32.6528 29.8178L32.3076 29.7827C31.3201 29.8913 30.2001 29.9145 29.419 29.7125C28.3285 29.4303 27.9297 29.054 27.0741 28.4552C26.7889 28.2556 26.4969 28.0926 26.3568 28.0579C25.9758 27.9634 25.7956 27.9239 25.6065 28.1522L25.6978 29.077C26.2813 30.035 26.7776 32.7807 26.5148 34.4418C26.252 36.1029 25.5133 37.1931 25.1768 37.5305L24.6781 37.8475C24.9208 36.5457 25.3254 33.5582 25.0022 32.022C24.5981 30.1018 23.243 27.6235 21.9048 25.9977C20.5665 24.3718 16.4952 21.9726 15.6579 22.4021C14.6532 22.9175 13.804 23.2277 12.9154 23.1205C12.1434 22.8594 11.5302 22.2179 12.1639 22.2776C13.1261 22.3681 14.2628 22.0248 14.9132 21.209C15.0595 20.7385 13.8976 20.0533 13.8976 20.0533C13.8976 20.0533 12.7727 19.1699 12.5358 17.9251C12.4481 17.5574 12.3484 16.918 12.6519 17.3026C13.0312 17.7833 14.4986 19.3454 15.6691 19.8272C16.8396 20.3091 18.445 20.345 19.6077 20.2397C21.19 20.0964 23.1831 19.5553 23.7876 17.681C24.0193 16.9629 23.5419 15.9074 22.6338 15.3281C20.5363 14.2634 16.2829 12.0704 15.277 11.5548C14.0196 10.9104 13.9841 10.7866 13.1468 10.7183C12.3095 10.65 12.2779 10.8198 11.3034 11.4873C10.329 12.1547 5.25116 21.3104 4.8246 22.8122C4.48336 24.0136 4.73517 25.021 4.90373 25.3746C6.98237 29.9985 11.1298 39.0162 11.2138 40.5781Z" fill="#DE4B47"/>
</svg>
