<svg width="160" height="160" viewBox="0 0 160 160" fill="none" xmlns="http://www.w3.org/2000/svg">
<rect width="160" height="160" fill="#BDB1B1" fill-opacity="0.8"/>
<path d="M68.8188 27.9407C62.2919 30.2061 59.7798 35.2527 61.1704 43.26C61.8209 46.8487 61.8657 48.643 61.2826 46.2655C60.7443 44.202 58.7705 44.4263 58.748 46.5571C58.748 47.9253 61.462 52.7924 62.3592 53.0167C62.9872 53.1962 63.3461 53.9363 63.7498 55.9774C64.2432 58.5119 64.5572 59.0054 67.7646 62.3249L71.2412 65.936H74.3813C78.0597 65.936 78.6204 65.5547 81.8951 60.7549C83.6446 58.1979 83.981 57.3456 84.2053 54.9008C84.3848 52.9495 84.6988 51.8504 85.2147 51.4915C86.067 50.886 87.6146 45.6823 87.3903 44.1123C87.1884 42.8114 86.067 42.7441 85.4614 43.9777C85.1025 44.673 84.9904 43.7983 84.9679 40.3666C84.9007 30.5874 77.5663 24.9352 68.8188 27.9407Z" fill="#434544"/>
<path d="M84.3164 58.4898C84.3164 59.1626 79.3146 65.4877 78.3502 66.026C74.9858 67.8428 71.8905 67.2148 68.5261 64.0298L65.9243 61.5401L66.5748 63.7158C67.3374 66.2054 67.2252 66.8559 66.3729 64.8373C66.0589 64.0747 65.7673 63.4691 65.7 63.4691C65.1842 63.4691 61.3487 65.4204 60.4067 66.183C59.7563 66.6765 57.3563 67.5736 55.0685 68.1568C48.4967 69.8166 44.9529 75.0875 44.5043 83.8798C44.3249 87.7825 44.2352 88.0292 42.3062 90.9226C40.0409 94.3094 38.1568 98.6607 39.0988 98.3691C40.4446 97.943 43.9436 92.6048 43.9436 90.9899C43.9436 89.8684 44.6165 88.2535 46.1192 85.7414C48.5192 81.7041 49.4612 79.349 50.2238 75.4239C51.121 70.9156 52.377 69.9736 57.4685 69.9736C62.6945 69.996 64.0403 70.3324 64.3991 71.7455C64.5337 72.3511 65.3412 73.2931 66.1935 73.8763C68.4813 75.4463 68.6607 77.0388 66.5972 77.8238C65.9019 78.093 65.4982 78.721 65.2963 79.8201C65.1617 80.6948 64.915 82.1078 64.758 82.9602C64.4216 84.8218 63.4571 85.7638 61.6852 85.9657C60.6534 86.1003 60.16 86.5489 59.3301 88.1413C58.7469 89.2404 58.0516 90.2273 57.8273 90.317C57.5806 90.4067 56.8853 91.4384 56.2797 92.6048C55.6966 93.7711 54.6872 95.3636 54.0592 96.1262C53.0723 97.2701 52.848 98.0775 52.6237 101.218C52.3322 105.412 52.4219 105.389 54.9788 100.814C56.5937 97.8981 56.4367 97.8532 58.3656 101.487C59.7787 104.111 60.0254 105.053 60.2273 108.552C60.3843 110.862 60.8104 113.352 61.259 114.384C62.5599 117.434 62.7618 119.901 62.0665 125.015C61.6403 128.066 61.5506 130.376 61.7973 131.295L62.1786 132.776L81.7146 132.888L101.273 133L100.892 131.363C100.488 129.591 101.295 124.387 103.359 115.326L104.458 110.436L102.933 107.812C100.623 103.864 97.8188 100.253 97.1011 100.253C96.7422 100.253 95.2843 99.0196 93.8489 97.5168C92.4358 96.014 90.5742 94.5113 89.6994 94.1524C88.8471 93.7935 87.6135 92.8739 86.9855 92.1338C86.021 90.9674 85.4154 90.6983 83.0603 90.4291C79.3146 89.9805 79.3595 90.0254 78.1707 83.8798C78.0362 83.1396 77.4306 82.0854 76.8474 81.5471C75.3447 80.1341 75.6811 79.0799 78.0362 77.8238C78.5072 77.5771 78.9333 76.837 79.0231 76.1865C79.2922 73.9211 87.6135 72.0595 90.776 73.5623C92.3461 74.3024 94.1853 76.9042 94.1853 78.3397C94.1853 78.9677 97.7516 84.2386 98.3347 84.4854C99.6356 85.0237 104.907 90.1375 105.041 90.945C105.221 92.3356 110.805 96.0813 113.923 96.9336C117.781 97.9878 119.889 98.8401 121.1 99.8494L122.222 100.747L120.652 99.984C119.8 99.5579 117.445 98.7504 115.426 98.2121C111.299 97.0682 110.491 96.6869 107.576 94.5786C105.019 92.7393 105.198 92.7169 104.57 94.8253C104.032 96.6421 101.004 99.8046 99.7926 99.8046C98.7384 99.8046 98.9627 100.433 101.071 103.483C102.148 105.031 103.875 107.767 104.884 109.539C107.643 114.294 114.125 118.802 119.755 119.856C124.532 120.731 127.336 109.27 124.061 102.317C123.411 100.971 122.895 99.5803 122.895 99.2214C122.895 97.6065 121.28 94.3094 118.544 90.2946C115.695 86.1227 115.56 85.7863 114.977 81.7714C113.878 74.3697 109.998 69.1437 104.256 67.3493C102.798 66.8783 100.466 65.8242 99.0749 64.9718C97.7067 64.1195 94.6787 62.7289 92.3685 61.8766C90.0807 61.0243 87.3219 59.8355 86.2453 59.2299C85.1911 58.6468 84.3164 58.3103 84.3164 58.4898Z" fill="#434544"/>
<path d="M53.498 71.1844C51.6363 72.0816 50.8961 74.4815 50.8961 79.4832C50.8961 83.5205 50.4027 84.7766 50.2233 81.1879L50.156 79.8421L49.4607 81.4122C47.6215 85.5392 49.9541 89.8905 54.3727 90.6306C56.5932 91.0119 59.0156 88.9484 58.6343 86.9971C58.4548 86.0999 58.7016 85.898 60.4959 85.4494C64.9593 84.328 65.2061 81.3897 60.8772 80.5374L58.9707 80.1561L61.0791 80.1113C62.223 80.0888 63.2996 80.2683 63.4566 80.515C64.0846 81.5243 64.6229 80.8739 64.4883 79.2814C64.3537 77.644 64.2865 77.5992 61.8865 77.0609L59.4193 76.5001L61.9987 76.7244C64.5108 76.9263 64.578 76.9039 64.578 75.8048C64.578 74.5488 63.9052 74.1451 60.5408 73.4273C58.5894 73.0012 58.5894 72.9787 61.1464 73.2255C63.7033 73.4722 63.7482 73.4498 63.6136 72.418C63.3669 70.7807 56.1446 69.9059 53.498 71.1844Z" fill="#434544"/>
<path d="M83.868 74.3022C80.6158 75.177 79.8308 75.648 79.8308 76.7246C79.8308 77.7788 79.8532 77.7788 81.9391 77.1508C84.9895 76.2312 84.8101 76.6349 81.6475 77.8236C79.1803 78.7432 78.9336 78.9451 78.9336 80.1563C78.9336 81.2105 79.0906 81.4348 79.7186 81.2329C82.141 80.5152 83.0382 80.56 81.1765 81.3002C79.7186 81.8834 79.113 82.3992 79.0009 83.1394C78.8214 84.4627 79.3149 85.8309 79.741 85.158C79.9205 84.8889 80.9747 84.5524 82.0737 84.3954L84.0923 84.1263L82.0737 84.7094C78.5972 85.6739 79.0009 89.4869 82.5896 89.4869C84.6306 89.4869 86.8511 90.4962 87.995 91.9765C92.9071 98.2119 100.869 89.8682 96.3163 83.2964L94.8808 81.188L94.5444 83.8347C94.051 87.6028 93.8715 87.3785 93.8715 83.0272C93.8715 75.3116 90.5968 72.463 83.868 74.3022Z" fill="#434544"/>
<path d="M65.25 75.8051C65.25 77.4649 65.878 77.8238 66.8201 76.7023C67.2911 76.1416 67.2462 75.85 66.5958 75.1323C65.4743 73.8986 65.25 74.0108 65.25 75.8051Z" fill="#434544"/>
<path d="M77.1159 79.4161C76.6449 79.9993 76.6674 80.246 77.2954 80.8516C77.9907 81.5469 78.0356 81.502 78.0356 80.1563C78.0356 78.5189 77.9234 78.4516 77.1159 79.4161Z" fill="#434544"/>
<path d="M47.5776 85.8308C47.5552 86.6606 47.9589 88.0961 48.4748 89.0382L49.4393 90.7204L48.4075 92.1334C47.0169 93.995 46.4562 93.8829 45.3571 91.6175C44.2581 89.3522 44.0786 90.0475 45.1104 92.6268C46.9945 97.3146 52.3999 98.0996 54.4859 93.9726C55.8989 91.2138 55.8989 91.2811 54.1494 91.2811C51.3906 91.2811 49.058 89.083 47.9589 85.4495C47.6449 84.4177 47.6001 84.4401 47.5776 85.8308Z" fill="#434544"/>
<path d="M98.6713 87.446C98.6713 90.4515 95.5984 94.8701 93.4901 94.8701C92.4359 94.8701 92.7275 95.4757 94.8358 97.5392C98.6264 101.262 104.144 97.9877 104.009 92.0888L103.965 90.1599L103.561 91.8645C102.686 95.5878 102.193 95.8794 100.152 93.9729C98.8731 92.7617 98.761 92.4926 99.1423 91.1692C99.703 89.2627 99.6806 86.4815 99.1198 86.1226C98.8507 85.9656 98.6713 86.5039 98.6713 87.446Z" fill="#434544"/>
<path d="M42.5986 95.7221C41.7238 96.9109 40.1314 98.5707 39.0547 99.423C36.0268 101.733 35.2642 102.989 35.2642 105.726C35.2193 115.796 38.1127 120.776 42.8229 118.69C49.8208 115.595 51.3909 113.015 51.6825 103.999L51.8843 97.651L49.8433 97.337C48.2956 97.1127 47.376 96.5969 46.0303 95.2735C45.0658 94.3091 44.2583 93.5241 44.2359 93.5465C44.1911 93.5465 43.4509 94.5334 42.5986 95.7221Z" fill="#434544"/>
</svg>
