<svg width="160" height="160" viewBox="0 0 160 160" fill="none" xmlns="http://www.w3.org/2000/svg">
<rect width="160" height="160" fill="#BFB9B5" fill-opacity="0.8"/>
<path d="M76.222 29.0567C74.1022 29.1952 72.6197 29.597 71.0956 30.4837C68.5602 31.9385 67.1885 33.5734 66.0524 36.4691C65.7753 37.1895 65.4844 39.1985 65.4844 40.3623C65.4844 41.6231 65.4705 41.6093 66.8006 41.9279C69.2668 42.5098 72.3287 44.4772 74.2269 46.6802C75.1413 47.747 75.5292 48.3151 76.125 49.5066C77.0117 51.28 77.1918 51.8065 77.5521 53.58C77.8846 55.2426 77.8846 56.8359 77.5521 58.7756C77.1087 61.3665 76.2636 63.2646 74.5317 65.5784C74.1299 66.1326 73.7974 66.6313 73.7974 66.6868C73.7974 66.9362 74.9058 67.5458 75.8063 67.7952C76.6931 68.0446 79.1731 68.0307 80.1707 67.7952C81.3345 67.5042 81.8055 67.1994 82.9832 66.0356C84.0916 64.9133 84.2302 64.5808 83.8699 64.0405C83.2742 63.1399 82.3875 59.3159 82.3875 57.5979C82.3875 56.725 82.8308 54.1203 83.1356 53.1227C83.9946 50.3933 86.5578 47.0958 89.1348 45.4194L90.2571 44.6851L90.3541 42.8146C90.4788 40.5009 90.3402 38.1178 90.0077 37.0925C89.1071 34.2523 87.4722 32.1602 85.0753 30.7331C82.6646 29.306 80.0598 28.8211 76.222 29.0567Z" fill="#404345"/>
<path d="M58.9595 43.1195C58.3083 43.2164 57.5186 43.3688 57.2277 43.4658C55.6898 43.9508 55.3572 44.0755 54.4012 44.4634C53.8332 44.6851 53.2651 44.9345 53.1543 45.0037C53.0435 45.073 52.7941 45.1977 52.6001 45.2808C52.4061 45.364 52.0598 45.5718 51.8104 45.7658C51.5748 45.9459 51.3393 46.0983 51.2839 46.0983C51.1176 46.0983 49.0671 47.7332 48.3466 48.4259C46.49 50.2548 44.301 53.1366 43.0679 55.3811C42.389 56.6142 40.4077 60.6183 40.4077 60.7707C40.4077 60.84 40.3107 61.0755 40.1999 61.2972C39.1608 63.3339 38.9114 64.9549 39.4517 66.1326C40.3107 68.0169 41.4053 69.1252 44.5088 71.2174C45.6726 72.0071 46.2268 72.9492 46.2268 74.1685C46.2268 74.7227 45.9081 75.7618 45.6449 76.0943C45.3539 76.4545 43.3173 79.6827 42.9155 80.4309C42.8046 80.6387 42.4028 81.1237 42.0149 81.5116C41.433 82.0935 41.1559 82.2598 40.3939 82.4537C39.5349 82.6893 39.424 82.6893 38.7313 82.4814C37.9277 82.2459 37.5813 82.0519 36.6669 81.2899C36.3482 81.0267 35.794 80.5695 35.4338 80.2785C35.0874 79.9876 34.5055 79.4611 34.1453 79.1147C33.4525 78.4358 33.2031 78.4358 33.2031 79.1008C33.2031 80.4863 35.032 82.2043 38.3433 83.9639C40.4631 85.0723 43.2895 85.8621 45.1738 85.8621C46.2407 85.8621 47.4876 85.5018 47.9171 85.0585C48.0557 84.9199 48.8593 83.2296 49.6905 81.2899C50.5357 79.3502 51.3116 77.5629 51.4086 77.3413C51.5194 77.1057 51.7411 76.6485 51.8796 76.3021C52.032 75.9558 52.323 75.3184 52.517 74.8612C52.9742 73.8498 52.9742 73.6974 52.5031 73.5866C52.032 73.4619 51.4917 73.1293 51.4917 72.9492C51.4917 72.8799 51.6857 72.7553 51.9073 72.6721C52.2537 72.5613 52.4477 72.2842 53.0296 71.1342C53.4037 70.3583 53.8055 69.6379 53.9025 69.5132C54.235 69.1391 54.2627 68.6957 53.9717 68.5433C53.5838 68.3355 53.6392 67.8783 54.0549 67.7675C54.8585 67.5735 55.7867 68.1554 55.7867 68.8482C55.7867 69.2915 55.1494 70.6354 54.5259 71.4806C54.0826 72.1041 54.0272 72.2842 54.3043 72.2842C54.6922 72.2842 58.2806 68.1277 58.2806 67.6982C58.2806 67.5873 58.1975 67.3795 58.1005 67.2271C57.2831 66.0079 57.1445 63.9573 57.7403 61.8652L57.9204 61.2141L57.1722 60.3412C56.7566 59.8563 56.1331 59.1497 55.7729 58.7756C53.7501 56.6004 53.6669 56.4895 53.9994 56.4895C54.1519 56.4895 55.1633 57.2238 55.4404 57.5425C55.5235 57.6256 55.7175 57.7919 55.8837 57.9027C56.05 58.0136 56.5072 58.3876 56.8951 58.7479C57.2831 59.1081 57.671 59.3991 57.7541 59.3991C57.9066 59.3991 57.8096 58.1521 57.5879 57.3901C57.5325 57.1546 57.4355 56.5865 57.3801 56.1016C57.3108 55.3811 57.3385 55.2426 57.5048 55.2426C57.6295 55.2426 57.7541 55.4088 57.8096 55.6166C57.8511 55.8383 57.962 56.2263 58.0728 56.4895C58.1698 56.7528 58.4608 57.6118 58.6963 58.4015C58.9457 59.1774 59.2089 59.8563 59.2782 59.8978C59.3475 59.9394 59.6246 59.8009 59.9017 59.5792C60.9685 58.7479 61.9384 58.1521 62.0353 58.2491C62.1046 58.3184 61.6058 59.025 60.9408 59.8147C59.0427 62.0869 59.0427 62.0731 59.0427 64.0405C59.0427 65.6754 59.0427 65.7169 59.4999 66.4374C60.0541 67.338 60.5667 67.8644 61.4119 68.3494C62.2016 68.8204 63.6702 69.2361 64.5015 69.2361C65.9701 69.2361 68.0484 68.6957 69.1152 68.0307C69.4062 67.8506 69.6694 67.712 69.711 67.712C69.7941 67.712 70.6116 67.1578 70.7501 67.0193C70.7917 66.9777 71.2073 66.6036 71.6923 66.188C74.4494 63.8188 76.0981 60.0364 76.0704 56.0739C76.0704 53.7601 75.7379 52.3469 74.7819 50.4626C74.2 49.3403 74.1307 49.2295 73.147 48.038C71.7754 46.3615 70.4869 45.3085 68.949 44.6019C67.0508 43.7291 66.746 43.6044 66.5243 43.6044C66.3997 43.6044 66.1918 43.549 66.0533 43.4797C65.5684 43.2164 63.1022 42.9116 61.6474 42.9255C60.8161 42.9393 59.6107 43.0225 58.9595 43.1195ZM53.7085 59.3159C53.7085 59.5653 52.517 61.7544 51.4917 63.417C51.4086 63.5278 51.2285 63.8742 51.0622 64.179C50.8959 64.4838 50.7158 64.7609 50.6604 64.8025C50.605 64.8441 50.4803 65.038 50.3694 65.2459C50.2586 65.4537 49.6628 66.4651 49.0394 67.4904C48.402 68.5295 47.8894 69.4023 47.8894 69.4301C47.8894 69.4716 47.737 69.7349 47.543 70.012C46.9611 70.8571 46.9888 70.2475 47.6262 68.3909C48.4852 65.8278 48.9701 64.6362 49.3165 64.1513C49.649 63.6941 51.3393 61.5881 51.7411 61.1309C51.8796 60.9785 52.323 60.4659 52.7248 59.981C53.473 59.122 53.7085 58.9557 53.7085 59.3159Z" fill="#404345"/>
<path d="M95.8276 44.5741C95.5643 44.6434 94.9963 44.7543 94.5806 44.8374C90.9368 45.5301 87.0297 48.6336 85.3809 52.1112C84.4942 53.9817 84.1201 55.6443 84.1201 57.7364C84.1201 60.3272 84.702 62.3362 86.1014 64.65C87.9164 67.6427 90.341 69.5685 93.3891 70.4275C94.0264 70.6076 94.5668 70.6354 95.8137 70.5799C97.9474 70.4829 98.7371 70.192 99.9564 69.042C100.608 68.4324 100.829 68.086 101.148 67.1439C101.383 66.465 101.439 64.9964 101.245 64.2482C101.176 63.985 101.079 63.597 101.037 63.3892C100.954 63.0151 100.095 61.8929 98.9172 60.6182C98.2522 59.8839 98.0998 59.4128 98.6263 59.7038C98.8064 59.8008 99.3467 60.1748 99.8455 60.5351C100.33 60.9092 100.815 61.2001 100.898 61.2001C101.231 61.2001 101.286 61.0339 102.159 58.0827C102.45 57.0713 102.907 56.1569 103.018 56.337C103.074 56.4201 103.046 56.8912 102.935 57.3623C102.838 57.8334 102.755 58.4568 102.755 58.7478C102.755 59.0387 102.686 59.5514 102.603 59.8977C102.436 60.5628 102.506 60.7845 102.824 60.5766C102.921 60.4935 103.725 59.8285 104.598 59.0803C106.08 57.8334 106.496 57.5701 106.496 57.8472C106.496 57.9026 105.581 59.011 104.473 60.2995C102.783 62.2808 102.478 62.7103 102.533 63.0013C103.088 65.6614 103.074 66.9638 102.45 68.2939C102.118 69.0282 102.159 69.2083 102.866 70.0119C103.074 70.2474 103.489 70.7462 103.794 71.1203C104.404 71.8684 106.094 73.531 106.247 73.531C106.51 73.531 106.454 73.2262 106.066 72.6997C105.471 71.8823 104.695 70.3305 104.695 69.9703C104.695 69.2637 105.969 68.5987 106.634 68.9589L106.925 69.1113L106.634 69.4715C106.274 69.9287 106.288 70.0257 106.731 70.8432C106.925 71.2173 107.313 71.9516 107.59 72.4781C107.909 73.1015 108.228 73.5172 108.491 73.6696C109.115 74.0021 109.073 74.1822 108.311 74.5702C107.48 74.9858 107.48 75.0551 108.228 76.5791C108.976 78.0755 109.724 79.7519 110.625 81.844C110.93 82.5645 111.442 83.6729 111.747 84.3102C112.066 84.9337 112.315 85.5017 112.315 85.5572C112.315 85.8065 113.119 86.3746 113.7 86.5686C114.781 86.9011 118.023 86.6378 118.979 86.1391C119.118 86.0559 119.326 86.0005 119.45 86.0005C119.658 86.0005 120.462 85.668 121.875 84.9891C122.221 84.8228 122.886 84.4211 123.344 84.1162C123.815 83.7976 124.258 83.5205 124.341 83.4928C124.771 83.3404 126.378 81.8302 126.738 81.2483C127.154 80.5694 127.334 79.6272 127.071 79.5302C126.987 79.5025 126.669 79.7104 126.378 79.9875C125.727 80.5694 124.119 81.8994 123.413 82.4259C123.136 82.6338 122.859 82.8554 122.776 82.9247C122.706 82.9801 122.36 83.1325 122.013 83.2711C120.877 83.7006 119.769 83.5205 118.758 82.7585C118.342 82.4398 117.635 81.4422 116.042 78.9345C115.626 78.2833 115.211 77.6321 115.114 77.4797C115.017 77.3273 114.781 76.8701 114.573 76.4544C114.269 75.8171 114.227 75.5954 114.296 74.8196C114.352 74.0714 114.449 73.7943 114.878 73.1847C115.155 72.769 115.571 72.3257 115.779 72.1871C117.843 70.8709 119.894 68.9312 120.531 67.712C121.238 66.3542 121.182 65.3843 120.282 63.2091C119.838 62.17 117.718 57.9858 116.998 56.7527C116.749 56.3232 115.114 53.8154 114.989 53.6492C114.92 53.566 114.587 53.1365 114.241 52.6793C112.204 50.033 109.198 47.5253 106.634 46.3476C105.097 45.6271 103.323 45.0036 102.395 44.8374C101.951 44.7543 101.3 44.6296 100.954 44.5741C100.178 44.4217 96.4788 44.4356 95.8276 44.5741ZM109.669 63.4585C110.805 64.7608 111.345 65.4952 111.65 66.1602C111.872 66.6728 112.121 67.1993 112.19 67.324C112.26 67.4626 112.315 67.6427 112.315 67.7258C112.315 67.8089 112.398 68.0722 112.509 68.3077C112.606 68.5571 112.841 69.1529 113.008 69.6516C113.188 70.1504 113.382 70.6076 113.451 70.6769C113.604 70.8709 113.59 71.4112 113.423 71.5221C113.34 71.5636 113.243 71.4944 113.188 71.3558C113.132 71.2173 112.841 70.7323 112.523 70.2751C112.052 69.5685 110.902 67.7674 110.334 66.8114C110.237 66.659 110.015 66.2849 109.821 65.9801C109.378 65.2596 109.378 65.2596 107.826 62.6687C107.092 61.4634 106.537 60.4104 106.593 60.3272C106.69 60.1748 107.466 60.9646 109.669 63.4585Z" fill="#404345"/>
<path d="M83.7588 67.144C82.0269 68.8758 80.7384 69.3747 77.8981 69.3747C75.8199 69.3747 75.2657 69.2361 73.7416 68.3078C73.2013 67.9892 72.7163 67.712 72.6748 67.712C72.6332 67.712 72.2176 68.003 71.7326 68.3771C70.8182 69.056 68.9201 70.0951 68.2689 70.2614C67.6454 70.4138 67.784 70.6909 68.7122 71.1619C69.0586 71.3421 69.5851 71.6469 69.8899 71.8547C70.1947 72.0487 70.8736 72.4366 71.414 72.6998C72.37 73.1848 73.0766 73.7944 74.0326 74.9582C74.4898 75.5262 74.656 75.8865 74.4344 75.8865C74.3235 75.8865 73.5476 75.2907 73.0489 74.8335C72.5501 74.3763 71.1507 73.5311 70.8875 73.5311C70.7628 73.5311 70.6381 73.4757 70.5965 73.4064C70.555 73.351 70.2224 73.1848 69.8622 73.0462C69.0586 72.7414 67.8117 72.1872 66.1491 71.3836C65.11 70.8848 64.7082 70.7601 63.7937 70.6909C62.242 70.5662 61.1059 70.1644 59.9975 69.3885C59.7481 69.2084 59.4987 69.1114 59.4294 69.1807C59.374 69.25 58.8059 69.9289 58.1825 70.6909C57.1433 71.9517 56.6307 72.492 54.9265 74.0853C54.594 74.404 54.2338 74.9443 54.0398 75.4293C53.8597 75.8726 53.541 76.6069 53.3194 77.0642C53.1115 77.5214 52.8067 78.2418 52.6405 78.6575C52.4604 79.0731 52.1833 79.7382 52.0031 80.1399C51.823 80.5279 51.6706 80.8881 51.6706 80.9297C51.6706 80.9712 51.3935 81.5809 51.061 82.2875C50.7423 82.9941 50.2574 84.0886 49.9942 84.7259C49.3846 86.2223 48.7888 86.8042 47.3479 87.2891C47.1539 87.3584 47.0985 87.5385 47.0985 88.1204C47.0985 88.5222 47.0431 89.2011 46.9599 89.6167C46.8907 90.0324 46.766 90.9884 46.6967 91.7504C46.3087 95.7821 45.9208 98.2345 45.5329 98.8857C44.9648 99.8417 42.6233 102.627 42.3739 102.627C42.1523 102.627 42.2492 102.294 42.7342 101.38C44.1751 98.6918 44.4522 98.0128 44.5907 96.8075C44.6739 96.1563 44.8817 94.4105 45.0757 92.9281C45.2558 91.4456 45.4359 89.6029 45.4636 88.8409L45.5052 87.4554L44.1197 87.3584C43.3576 87.303 42.3601 87.1506 41.9029 87.0259C40.2264 86.5687 37.594 85.4602 36.2085 84.6151C35.488 84.1856 33.6314 82.7724 33.3959 82.4814C33.0772 82.1074 32.814 82.2182 31.955 83.1188C31.5116 83.6037 30.5695 84.5874 29.8629 85.3079C26.3022 89.0071 25.5401 90.1156 24.5149 93.2052C23.8637 95.2003 23.8498 95.3666 24.3625 101.033C24.5149 102.779 24.6534 104.566 24.6534 104.982C24.6534 105.716 24.6811 105.785 25.3185 106.381C25.6787 106.741 26.3714 107.365 26.8702 107.767C27.7292 108.487 27.9509 108.667 28.8792 109.485C29.1147 109.679 29.4888 109.97 29.7243 110.122C30.1816 110.399 30.4864 110.371 32.0658 109.859C32.3014 109.776 33.1327 109.512 33.9363 109.277C34.7398 109.028 35.6404 108.75 35.9452 108.653C36.25 108.556 36.9289 108.335 37.4554 108.169C38.4807 107.836 39.7831 107.185 40.2541 106.755C40.4065 106.617 40.7945 106.326 41.1131 106.118C42.9143 104.913 46.0594 101.809 47.14 100.147C47.7081 99.2875 49.1767 96.378 49.1767 96.1009C49.1767 96.0316 49.9803 95.131 50.9779 94.0919C53.5133 91.4318 53.8043 90.6974 53.7212 87.4138C53.6657 85.585 53.6103 85.2524 53.2224 84.0609C52.973 83.3405 52.7097 82.6893 52.6405 82.62C52.4742 82.4537 52.4604 81.9827 52.6128 81.9827C52.8067 81.9827 53.5826 82.814 54.0675 83.5483C54.7464 84.5597 54.9958 85.5296 55.0928 87.4969C55.1621 88.9517 55.2175 89.2842 55.4807 89.6445C55.647 89.8938 56.0904 90.5173 56.4506 91.0577C56.8247 91.5841 57.3096 92.3046 57.5451 92.651C57.9885 93.3022 59.4017 95.2419 60.1222 96.184C60.5932 96.7797 60.9258 96.9183 63.3088 97.4171C65.0961 97.7912 68.6707 98.4285 69.5574 98.5393C70.6658 98.6779 71.0676 99.3014 70.0423 99.3014C69.7929 99.3014 69.2526 99.3706 68.8369 99.4399C68.3243 99.5369 67.7424 99.5369 66.9804 99.4399C65.1377 99.2044 63.0317 98.8719 61.8817 98.664C61.2998 98.5532 60.5932 98.4701 60.3161 98.4701C59.7342 98.4701 59.4433 98.1929 58.321 96.5858C57.9054 95.99 57.2542 95.0617 56.8801 94.5214C56.506 93.9949 55.8825 93.0943 55.5085 92.554C55.1344 91.9998 54.7741 91.5842 54.7049 91.6257C54.6356 91.6673 54.4139 91.9998 54.2338 92.3739C54.026 92.7757 53.167 93.801 52.1556 94.8401C51.1996 95.8238 50.4237 96.7243 50.4237 96.849C50.4237 96.9599 50.5207 97.3617 50.6176 97.7219C50.7285 98.096 50.9225 98.7749 51.061 99.2321C51.6706 101.463 52.3495 102.931 53.6935 104.982C53.9151 105.328 54.123 105.661 54.1645 105.744C54.2061 105.813 54.788 106.714 55.4669 107.739L56.7 109.609L56.6446 120.07C56.6446 120.07 56.6446 129.904 56.6446 129.943C56.6446 129.981 56.6239 130.248 56.6446 130.388C56.6652 130.527 57.0589 130.544 57.0589 130.544L79.2326 130.999C97.2025 131.026 101.756 130.586 101.853 130.447C101.909 130.35 101.964 126.014 101.95 120.818L101.936 111.369L102.546 110.496C103.724 108.82 105.539 105.702 106.024 104.552C107.271 101.601 108.337 98.4839 108.67 96.8767C108.781 96.3641 108.67 96.2117 107.506 95.3527C106.37 94.5076 104.597 92.7064 104.292 92.0829C104.167 91.8197 103.959 91.3625 103.835 91.0577C103.71 90.7529 103.516 90.2956 103.405 90.0462C103.294 89.7969 103.211 89.4505 103.211 89.2842C103.211 89.118 103.156 88.8963 103.1 88.7993C102.934 88.5361 102.643 88.8686 100.288 91.9721C99.1101 93.51 98.0017 94.9648 97.8077 95.2141C97.6137 95.4635 96.9903 96.281 96.4084 97.0291C95.8264 97.7912 95.2307 98.5116 95.0783 98.6363C94.7596 98.9273 93.5681 99.0797 89.273 99.3706C85.8647 99.5923 83.3431 99.4538 83.5925 99.0381C83.6618 98.9411 84.6039 98.761 87.6936 98.2622C90.1875 97.8605 91.67 97.5972 92.5151 97.4171C93 97.3062 93.5404 97.2231 93.7066 97.2231C94.0253 97.2231 94.3994 96.8352 95.8542 94.9925C96.2421 94.5076 96.6023 94.0365 96.6577 93.9672C97.8216 92.4986 99.8859 89.8938 100.121 89.6029C100.218 89.4921 100.468 89.1595 100.676 88.8824C100.884 88.6053 101.452 87.871 101.936 87.2475L102.795 86.1114V84.9753C102.795 83.3682 103.419 81.4839 104.056 81.1514C104.32 80.999 104.333 81.0267 104.223 81.5254C104.167 81.8164 104.112 83.1742 104.112 84.5458C104.126 86.7764 104.153 87.1921 104.486 88.4252C105.04 90.5727 105.58 91.5426 106.952 92.9419C107.617 93.5931 108.518 94.3413 108.961 94.6045C109.695 95.0202 111.413 95.8099 112.106 96.0316C112.355 96.1009 112.716 96.6689 112.508 96.6689C112.439 96.6689 111.912 96.5719 111.316 96.4472C110.734 96.3225 110.222 96.2671 110.18 96.2948C110.056 96.4195 111.51 98.8719 112.466 100.133C113.505 101.518 117.08 104.913 118.368 105.744C118.604 105.896 119.283 106.381 119.879 106.825C121.25 107.836 122.109 108.349 122.885 108.626C123.8 108.944 126.016 109.623 127.042 109.9C127.54 110.025 128.095 110.191 128.289 110.247C130.686 111.009 130.602 110.995 130.949 110.759C131.129 110.621 131.614 110.233 132.043 109.859C132.473 109.499 133.512 108.626 134.343 107.933L135.867 106.644L135.964 105.799C136.006 105.328 136.047 104.594 136.047 104.178C136.047 103.749 136.131 102.682 136.241 101.809C136.74 97.8744 136.768 97.2231 136.532 95.8238C136.338 94.6045 135.715 92.3739 135.382 91.7366C135.313 91.598 135.105 91.1962 134.939 90.8498C134.759 90.5035 134.371 89.88 134.066 89.4643C133.457 88.6608 128.206 83.3404 127.776 83.1188C127.568 83.0079 127.347 83.1326 126.557 83.8115C126.016 84.2549 125.254 84.8506 124.853 85.1139C124.049 85.6542 121.001 87.2475 120.779 87.2475C120.696 87.2475 120.447 87.3307 120.211 87.4415C119.38 87.7879 118.244 88.065 117.205 88.1481C115.459 88.3144 115.39 88.3144 115.251 88.4529C115.126 88.5776 115.279 90.7806 115.542 92.5817C115.611 93.1082 115.75 94.1058 115.833 94.7985C115.916 95.4774 116.027 96.4888 116.096 97.043C116.249 98.2345 116.47 98.9273 117.122 100.133C117.399 100.631 117.676 101.172 117.745 101.338C117.828 101.504 118.036 101.878 118.216 102.169C118.576 102.751 118.798 103.458 118.618 103.458C118.452 103.458 116.72 101.532 115.944 100.493C115.597 100.036 115.223 99.3706 115.099 99.0243C114.835 98.2761 114.267 94.5352 113.866 90.8498C113.561 88.0373 113.63 88.2312 112.84 87.8849C112.466 87.7325 112.009 87.4969 111.829 87.3861C111.455 87.1367 110.873 86.2223 110.43 85.1693C110.028 84.2272 109.598 83.2711 108.795 81.567C108.462 80.8466 108.06 80.0014 107.922 79.6966C106.758 77.1889 106.536 76.6901 106.536 76.5792C106.536 76.1636 105.83 75.2491 104.957 74.5287C104.403 74.0853 103.35 73.0046 102.602 72.1318C101.853 71.2589 101.188 70.5246 101.105 70.4969C101.036 70.4692 100.8 70.5662 100.606 70.7186C99.8305 71.2866 98.8191 71.7716 97.877 72.0209C95.9096 72.5474 93.0832 72.2426 91.0742 71.3005C90.132 70.8571 89.9658 70.8571 88.802 71.3421C88.4556 71.4945 88.0261 71.6746 87.8321 71.7577C87.6382 71.827 87.3056 71.9794 87.0701 72.0764C86.2388 72.4366 83.4401 73.5311 83.3431 73.5311C83.0106 73.5311 81.7636 74.2516 80.6691 75.069C79.9625 75.5955 79.3529 76.025 79.3113 76.025C78.8125 76.025 81.2371 73.3926 82.1516 72.9492C82.4148 72.8245 83.26 72.4227 84.022 72.0625C84.784 71.7161 85.934 71.1758 86.5852 70.871C87.2364 70.5662 87.9014 70.2614 88.0815 70.1921C88.2478 70.1228 88.3863 69.9981 88.3863 69.915C88.3863 69.8319 87.943 69.3469 87.4026 68.8343C86.8623 68.3355 86.1002 67.5042 85.7262 66.9777C85.3382 66.4651 84.978 66.0495 84.9364 66.0495C84.881 66.0495 84.3545 66.5482 83.7588 67.144ZM77.1499 84.8229C77.2331 86.1114 77.3716 88.6746 77.4547 90.5035C77.5379 92.3877 77.6626 93.9811 77.7596 94.175C77.8427 94.369 78.0782 94.6738 78.2722 94.8678C78.4662 95.0617 79.0619 95.7129 79.5884 96.3087C80.1288 96.9183 80.7245 97.5972 80.9323 97.8189C81.1263 98.0406 81.3203 98.3454 81.3618 98.4839C81.4173 98.7056 81.3896 98.7056 80.9185 98.4424C80.6414 98.29 80.1703 97.9574 79.8655 97.7219C79.5607 97.4725 79.0065 97.0569 78.6186 96.8075C78.2445 96.5442 77.8704 96.2671 77.7873 96.184C77.718 96.1009 77.3162 95.7822 76.9144 95.4774C76.5126 95.1864 76.1524 94.7985 76.097 94.6184C75.9861 94.1335 76.4849 84.1163 76.6927 82.6893C76.8451 81.7333 77.0114 82.523 77.1499 84.8229ZM62.1866 93.6901C62.6161 93.8979 62.9763 94.5907 62.8377 94.937C62.6161 95.5051 61.092 94.7985 61.092 94.1196C61.092 93.51 61.5215 93.3437 62.1866 93.6901ZM93.4295 94.1196C93.7621 94.4521 93.7066 94.6738 93.1386 95.131C92.5982 95.5882 92.1549 95.6714 91.8778 95.3943C91.6145 95.131 91.6838 94.7846 92.0717 94.3274C92.4735 93.8425 93.0693 93.7594 93.4295 94.1196ZM101.133 101.975C101.133 102.183 100.662 102.654 100.205 102.89C99.8305 103.084 97.4336 103.098 97.3228 102.904C97.2258 102.751 97.6969 102.543 98.639 102.322C98.9854 102.239 99.5119 102.1 99.8167 102.003C100.579 101.768 101.133 101.754 101.133 101.975ZM73.1043 104.691C73.894 104.802 74.5313 105.217 74.2265 105.425C74.1295 105.481 73.7 105.536 73.2705 105.536C72.5639 105.536 71.5664 105.758 70.6797 106.104C69.5158 106.561 67.4237 107.185 67.3129 107.116C67.1051 106.991 67.5207 106.589 68.6291 105.841C70.5411 104.566 71.1507 104.414 73.1043 104.691ZM83.1768 105.01C83.7588 105.301 85.2828 106.298 85.8786 106.769C86.3081 107.102 86.1695 107.365 85.643 107.199C84.8117 106.922 83.0383 106.284 82.9136 106.201C82.5949 106.021 80.9046 105.633 80.0179 105.55C78.9649 105.453 78.7433 105.273 79.339 104.982C80.295 104.511 82.2347 104.525 83.1768 105.01ZM60.3716 106.326C61.4661 108.182 61.8402 109 61.6601 109.18C61.4661 109.374 60.6209 108.543 60.0806 107.614C59.7065 106.963 59.374 105.744 59.4987 105.522C59.6649 105.273 59.8312 105.411 60.3716 106.326ZM76.6096 108.556C76.6096 108.612 76.7066 109.443 76.8313 110.385C77.0529 112.186 77.0252 113.503 76.7066 114.999C76.6096 115.442 76.4849 115.803 76.4156 115.803C76.2217 115.803 75.7783 113.503 75.7783 112.505C75.7783 111.757 76.1108 109.097 76.2632 108.612C76.3325 108.432 76.6096 108.376 76.6096 108.556ZM89.7995 109.526C90.3399 110.662 90.7278 111.896 90.7417 112.464C90.7417 113.558 89.3839 116.204 88.802 116.204C88.6219 116.204 88.6219 115.747 88.7881 115.567C89.2038 115.165 89.4254 111.812 89.1622 109.72C89.0098 108.446 89.2592 108.363 89.7995 109.526ZM64.8467 110.067C64.625 111.327 64.5973 112.976 64.7913 113.572C64.9437 114.029 65.1654 114.957 65.3455 115.816C65.5256 116.759 64.6804 115.872 63.9738 114.403C63.6552 113.724 63.3088 112.616 63.3088 112.256C63.3088 112.089 63.4058 111.646 63.5305 111.272C64.3064 108.861 65.2069 108.044 64.8467 110.067ZM73.6169 116.689C75.3488 117.285 75.2379 117.479 72.9657 117.784C70.8459 118.075 67.7424 118.089 67.7424 117.812C67.7424 117.701 68.1719 117.479 68.8231 117.271C69.405 117.077 70.3333 116.759 70.8598 116.565C71.9266 116.177 72.1206 116.191 73.6169 116.689ZM82.872 116.537C83.1214 116.648 83.7033 116.842 84.1605 116.98C85.5599 117.382 86.4605 117.77 86.3219 117.909C86.1002 118.13 79.9486 117.812 78.2999 117.507C77.5933 117.368 78.1336 116.966 79.6577 116.482C80.6691 116.177 82.0685 116.191 82.872 116.537ZM65.3871 121.954C65.3871 123.672 65.4425 124.143 65.7473 125.307C66.1906 126.97 66.2876 127.565 66.1214 127.565C65.8581 127.565 65.4148 126.914 64.7913 125.612C63.96 123.908 63.9461 123.34 64.625 121.317C64.8883 120.527 65.11 119.862 65.11 119.834C65.11 119.807 65.1792 119.834 65.2485 119.876C65.3316 119.931 65.3871 120.777 65.3871 121.954ZM89.2038 120.527C89.7441 121.913 89.9519 122.73 89.9658 123.617C89.9796 124.49 89.9242 124.698 89.4393 125.667C89.1345 126.263 88.7188 126.928 88.5249 127.15C88.0815 127.649 87.7628 127.704 87.9014 127.247C88.0954 126.61 88.414 125.543 88.5387 125.072C88.608 124.808 88.6634 123.686 88.6496 122.578C88.6496 121.469 88.6496 120.458 88.6496 120.319C88.6634 119.931 89.0098 120.056 89.2038 120.527ZM76.6789 123.021C76.8174 124.24 77.1084 125.21 77.427 125.543C77.8288 125.972 77.7873 126.111 77.2192 126.443C76.5957 126.817 76.3879 126.803 75.8199 126.374C75.3903 126.055 75.1825 125.487 75.5012 125.487C75.7506 125.487 75.9168 124.947 76.0554 123.589C76.1385 122.841 76.2355 122.134 76.2771 122.023C76.4018 121.677 76.5819 122.12 76.6789 123.021Z" fill="#404345"/>
<path d="M36.9718 69.2638C36.376 70.2752 35.6417 71.536 35.3508 72.0764C35.0598 72.6029 34.7134 73.2125 34.5749 73.4064C34.4363 73.6143 34.2562 73.9191 34.1731 74.0992C34.09 74.2793 33.8821 74.6811 33.6882 74.9859C33.5081 75.2907 33.3557 75.6648 33.3557 75.8172C33.3418 76.122 34.09 76.9395 35.42 78.1033C35.905 78.5189 36.4038 78.9623 36.5284 79.0731C38.4681 80.8604 39.5765 81.3315 40.4356 80.7634C40.7681 80.5418 41.6548 79.4749 41.6548 79.281C41.6548 79.2532 42.1951 78.3942 42.8602 77.3828C44.4396 74.9859 44.5643 74.7365 44.5643 74.1269C44.5643 73.3372 44.2041 72.9354 42.6108 71.8824C41.0729 70.871 39.1747 69.0421 38.5928 68.003C38.4127 67.6982 38.2188 67.4349 38.1633 67.4349C38.1079 67.4349 37.5676 68.2662 36.9718 69.2638Z" fill="#404345"/>
<path d="M121.487 69.2085C120.739 70.2892 119.464 71.4946 117.663 72.8662C116.416 73.8084 116.111 74.1132 115.959 74.5565C115.668 75.4294 115.834 75.7896 118.439 79.6552C118.73 80.0985 118.966 80.5142 118.966 80.5696C118.966 80.6389 119.201 80.9437 119.492 81.2623C119.963 81.7611 120.116 81.8442 120.6 81.8442C120.905 81.8442 121.307 81.7888 121.501 81.7195C121.82 81.5948 123.552 80.334 123.967 79.9184C124.078 79.7937 124.605 79.3226 125.117 78.8654C126.461 77.6877 127.14 76.9673 127.14 76.7456C127.14 76.5793 126.336 75.083 125.519 73.7391C125.422 73.5867 125.311 73.365 125.256 73.2542C125.006 72.7277 122.499 68.5989 122.36 68.5158C122.125 68.3356 122.069 68.3772 121.487 69.2085Z" fill="#404345"/>
</svg>
